<svg width="148" height="49" viewBox="0 0 148 49" fill="none" xmlns="http://www.w3.org/2000/svg">
  <style>
    @keyframes blinkLid {
      0%, 88%, 100% { transform: scaleY(0); opacity: 1; }
      90%, 92%      { transform: scaleY(1); opacity: 1; }
      94%           { transform: scaleY(0); opacity: 1; }
    }

    @keyframes blinkLine {
      0%, 88%, 100% { opacity: 0; }
      90%, 92%      { opacity: 1; }
      94%           { opacity: 0; }
    }

    #right-lid {
      transform-box: fill-box;
      transform-origin: 87.433px 16.339px;
      transform: scaleY(0);
      animation: blinkLid 4s infinite;
    }

    #right-blink-line {
      animation: blinkLine 4s infinite;
    }
  </style>

<path d="M0 32.3018V15.5621H4.1342V32.3018H0Z" fill="#22075E"/>
<path d="M6.16741 32.3018V15.5621H11.6712L17.6316 26.8995H17.6823V15.5621H21.7404V32.3018H16.5663L10.2762 20.584H10.2255V32.3018H6.16741Z" fill="#22075E"/>
<path d="M30.347 32.6569C29.1634 32.6569 28.1235 32.5216 27.2274 32.2511C26.3481 31.9805 25.6126 31.5916 25.0208 31.0844C24.429 30.5771 23.9893 29.9684 23.7019 29.2582C23.4314 28.5312 23.313 27.728 23.3468 26.8487L27.1513 26.0117C27.1851 26.7895 27.3457 27.4236 27.6332 27.914C27.9375 28.3874 28.3434 28.7425 28.8506 28.9792C29.3579 29.1991 29.9243 29.309 30.5499 29.309C31.0572 29.309 31.5053 29.2498 31.8942 29.1314C32.2831 28.9961 32.5875 28.8186 32.8073 28.5988C33.044 28.3621 33.1624 28.0915 33.1624 27.7872C33.1624 27.3814 33.0102 27.0516 32.7058 26.798C32.4015 26.5275 31.9787 26.2992 31.4377 26.1132C30.9135 25.9272 30.3132 25.7412 29.6369 25.5552C28.9098 25.3523 28.1827 25.1325 27.4556 24.8958C26.7455 24.6421 26.0945 24.3293 25.5027 23.9573C24.9109 23.5853 24.429 23.1034 24.057 22.5116C23.7019 21.9198 23.5243 21.1843 23.5243 20.305C23.5243 19.2229 23.7949 18.3013 24.336 17.5404C24.894 16.7795 25.6549 16.2046 26.6187 15.8157C27.5994 15.4099 28.7153 15.207 29.9666 15.207C31.2855 15.207 32.4606 15.4353 33.4921 15.8918C34.5235 16.3315 35.3182 16.9825 35.8762 17.8448C36.4342 18.7071 36.654 19.7639 36.5357 21.0152L32.7819 21.6239C32.7988 21.1167 32.7481 20.6686 32.6297 20.2797C32.5114 19.8908 32.3254 19.561 32.0717 19.2905C31.835 19.02 31.5307 18.8171 31.1587 18.6818C30.7867 18.5296 30.347 18.4535 29.8398 18.4535C29.3156 18.4535 28.876 18.5212 28.5209 18.6564C28.1827 18.7917 27.9206 18.9777 27.7346 19.2144C27.5655 19.4511 27.481 19.7217 27.481 20.026C27.481 20.3811 27.6163 20.677 27.8868 20.9137C28.1574 21.1505 28.5463 21.3618 29.0535 21.5478C29.5608 21.7169 30.161 21.8945 30.8543 22.0805C31.5814 22.2834 32.3085 22.5116 33.0355 22.7653C33.7795 23.002 34.4643 23.3232 35.09 23.7291C35.7156 24.118 36.2144 24.6252 36.5864 25.2508C36.9753 25.8765 37.1697 26.6712 37.1697 27.635C37.1697 28.751 36.8738 29.681 36.282 30.4249C35.7071 31.1689 34.904 31.7269 33.8725 32.0989C32.858 32.4709 31.6828 32.6569 30.347 32.6569Z" fill="#22075E"/>
<path d="M45.5386 32.6569C44.5748 32.6569 43.7124 32.547 42.9516 32.3272C42.1907 32.1074 41.5312 31.7945 40.9732 31.3887C40.4321 30.9829 39.9756 30.501 39.6036 29.943C39.2485 29.3681 38.978 28.7256 38.792 28.0154C38.6229 27.3053 38.5384 26.5359 38.5384 25.7074V15.5621H42.6472V25.5045C42.6472 26.3668 42.774 27.0601 43.0276 27.5843C43.2813 28.0915 43.6195 28.4551 44.0422 28.6749C44.4818 28.8947 44.9806 29.0046 45.5386 29.0046C46.1135 29.0046 46.6123 28.8947 47.035 28.6749C47.4747 28.4551 47.8213 28.0915 48.0749 27.5843C48.3285 27.077 48.4554 26.3837 48.4554 25.5045V15.5621H52.5642V25.7074C52.5642 27.9055 51.9724 29.6133 50.7888 30.8308C49.6052 32.0482 47.8551 32.6569 45.5386 32.6569Z" fill="#22075E"/>
<path d="M54.516 32.3018V15.5621H61.4655C62.2095 15.5621 62.9112 15.6298 63.5706 15.765C64.247 15.8834 64.8557 16.0694 65.3968 16.323C65.9548 16.5766 66.4367 16.8979 66.8425 17.2868C67.2483 17.6757 67.5611 18.1407 67.7809 18.6818C68.0007 19.206 68.1106 19.8062 68.1106 20.4826C68.1106 21.0067 68.0176 21.5056 67.8316 21.979C67.6626 22.4355 67.3836 22.8498 66.9947 23.2218C66.6227 23.5938 66.1323 23.9066 65.5236 24.1602C64.9318 24.397 64.2216 24.566 63.3931 24.6675V24.8704C64.4753 24.9211 65.3122 25.1325 65.904 25.5045C66.4958 25.8765 66.9355 26.3499 67.2229 26.9248C67.5273 27.4828 67.7556 28.0915 67.9077 28.751L68.7954 32.3018H64.2554L63.6214 28.9792C63.5199 28.4043 63.3593 27.9393 63.1395 27.5843C62.9366 27.2292 62.6406 26.9671 62.2517 26.798C61.8628 26.6289 61.3471 26.5444 60.7046 26.5444H58.6248V32.3018H54.516ZM58.6248 23.374H61.0089C61.9389 23.374 62.6491 23.1964 63.1395 22.8413C63.6298 22.4863 63.875 21.9452 63.875 21.2181C63.875 20.4234 63.6467 19.8316 63.1902 19.4427C62.7336 19.0538 62.0404 18.8593 61.1104 18.8593H58.6248V23.374Z" fill="#22075E"/>
<path d="M115.258 32.6569C114.075 32.6569 113.01 32.4709 112.063 32.0989C111.116 31.7269 110.313 31.1774 109.653 30.4503C108.994 29.7232 108.487 28.8186 108.131 27.7364C107.793 26.6543 107.624 25.4115 107.624 24.0081C107.624 22.0128 107.945 20.3727 108.588 19.0876C109.247 17.7856 110.16 16.8134 111.327 16.1708C112.511 15.5283 113.872 15.207 115.411 15.207C116.594 15.207 117.651 15.393 118.581 15.765C119.528 16.1201 120.331 16.6612 120.991 17.3883C121.65 18.1153 122.149 19.0284 122.487 20.1275C122.842 21.2097 123.02 22.4694 123.02 23.9066C123.02 25.3608 122.834 26.6374 122.462 27.7364C122.107 28.8355 121.582 29.7486 120.889 30.4757C120.213 31.2027 119.393 31.7523 118.429 32.1243C117.482 32.4794 116.425 32.6569 115.258 32.6569ZM115.411 29.2836C116.172 29.2836 116.797 29.0976 117.288 28.7256C117.795 28.3367 118.167 27.7618 118.404 27.0009C118.657 26.2231 118.784 25.2509 118.784 24.0841C118.784 22.8498 118.649 21.8268 118.378 21.0152C118.125 20.2036 117.736 19.5949 117.211 19.1891C116.704 18.7663 116.062 18.555 115.284 18.555C114.54 18.555 113.914 18.7579 113.407 19.1637C112.9 19.5526 112.519 20.1444 112.266 20.9391C112.012 21.7338 111.885 22.723 111.885 23.9066C111.885 24.8028 111.953 25.589 112.088 26.2654C112.24 26.9417 112.46 27.5082 112.748 27.9647C113.052 28.4043 113.424 28.7341 113.864 28.9539C114.303 29.1737 114.819 29.2836 115.411 29.2836Z" fill="#22075E"/>
<path d="M122.352 32.3018L127.247 24.0081L122.352 15.5621H127.222L129.91 21.8268H129.961L132.573 15.5621H137.57L132.7 23.9573L137.595 32.3018H132.573L129.986 25.8849H129.936L127.222 32.3018H122.352Z" fill="#22075E"/>
<path d="M95.5695 32.3018V15.5621H107.008V18.9861H99.6784V22.9935H106.146V26.3415H99.6784V32.3018H95.5695Z" fill="#22075E"/>
<path d="M143.368 24.2412C141.983 34.7906 134.079 43.0897 124.041 45.2954C126.192 46.9029 128.815 47.9296 131.694 48.1175C139.612 48.6342 146.448 42.6346 146.965 34.7173C147.226 30.7269 145.829 27.012 143.368 24.2412Z" fill="#D4380D"/>
<path d="M88.0781 17.3669C87.9165 17.5608 87.7549 17.7224 87.658 17.787C87.2376 18.0459 86.7205 17.9489 86.4617 17.5931C86.2031 17.2376 86.3647 16.688 86.7851 16.4294C86.8821 16.3648 87.076 16.3002 87.3345 16.2355C88.0134 16.074 89.0479 15.9444 89.0479 15.9444C89.0479 15.9444 88.4982 16.8172 88.0781 17.3669ZM77.6363 17.5931C77.3777 17.9489 76.8607 18.0459 76.4403 17.787C76.3433 17.7224 76.1817 17.5608 76.0202 17.3669C75.5997 16.8172 75.05 15.9444 75.05 15.9444C75.05 15.9444 76.0848 16.074 76.7634 16.2355C77.0223 16.3002 77.2162 16.3648 77.3131 16.4294C77.7332 16.688 77.8951 17.2376 77.6363 17.5931ZM87.8825 5.53753V11.3743H76.1921V5.34131C73.1771 7.27556 71.1719 10.698 71.1719 14.6001C71.1719 16.066 71.4587 17.4622 71.9718 18.7391C74.1852 18.6032 77.6872 18.2631 78.74 19.8035C79.6641 20.8386 80.5553 23.737 80.9078 24.9826H82.945C83.2978 23.737 84.1886 20.8386 85.1127 19.8035C86.1538 18.2807 89.5879 18.5956 91.8047 18.7345C92.3167 17.4585 92.6029 16.064 92.6029 14.6001C92.6029 10.8282 90.7306 7.50277 87.8825 5.53753Z" fill="#D4380D"/>
  <ellipse id="right-lid" cx="87.433" cy="16.339" rx="1.45" ry="1.05" fill="#D4380D"/>
  <path id="right-blink-line"
        d="M86.372 16.35 Q87.433 16.90 88.772 16.35"
        fill="none" stroke="#000" stroke-width="0.35" stroke-linecap="round" opacity="0"/>
<path d="M83.9725 25.7073L81.936 27.4853L81.7094 27.2914L74.6624 21.1169C74.6624 21.2785 74.6301 21.4401 74.6301 21.634C74.6301 26.0951 81.8714 32.302 81.8714 32.302C81.8714 32.302 89.1126 26.0951 89.1126 21.634C89.1126 21.4724 89.1126 21.3431 89.0803 21.1815L84.9746 24.7699L83.9725 25.7073Z" fill="#D4380D"/>
</svg>
